<svg xmlns="http://www.w3.org/2000/svg" viewBox="0 0 32 32"><path d="m30.9,15-0.1,0c-2.6,-1.8-5.1,-3.9-7.4,-6.2L20.9,6.2C19.9,5 18.9,3.7 17.9,2.5l-1.2,-1.7c-0.1,-0.1-0.3,-0.2-0.5,-0.3-0.3,-0.2-0.7,0-1,0.2l-2.1,2.8C9.8,7.8 5.8,11.7 1.5,14.8c-0.3,0.3-0.9,0.5-1,1-0.1,0.4 0.1,0.7 0.3,1 3.5,2.4 6.8,5.3 9.8,8.6 0.5,0.6 1,1.1 1.5,1.6 0.9,1.2 1.9,2.3 2.7,3.6 0.2,0.3 0.3,0.7 0.7,0.8 0.3,0.1 0.7,0.2 1,0l0.3,-0.3c3.6,-5.2 8.2,-9.8 13.3,-13.6 0.5,-0.5 1.5,-0.6 1.5,-1.5 0,-0.4-0.3,-0.8-0.6,-1zm-3.5,1.4c-0.6,1.5-1.8,2.6-2.8,3.9-2.2,2.4-4.6,4.8-7.2,6.7-0.5,0.4-1.3,0.7-1.9,0.4-1.9,-1-3.6,-2.7-5.3,-4.3-2,-1.9-3.9,-4-5.4,-6.3-0.2,-0.3-0.3,-0.7-0.3,-1.1 0.2,-0.8 0.7,-1.4 1.2,-2.1 1.8,-2.3 3.9,-4.4 6.1,-6.4 0.1,-0.1 0.1,-0.2 0.2,-0.2 0.9,-0.8 1.9,-1.5 2.9,-2.3 1,-0.8 2.3,-0.1 3.2,0.6 0.9,0.7 1.8,1.5 2.7,2.3l0.1,0.1c2.3,2.1 4.4,4.5 6.1,7.1 0.3,0.4 0.5,0.9 0.4,1.5zM26.4,15.2C24.2,11.8 21.2,8.9 18.1,6.4 17.3,5.8 16.3,4.8 15.3,5.5 12,7.8 8.9,10.9 6.4,14c-0.5,0.8-1.4,1.5-1,2.5 0.3,0.7 0.9,1.3 1.4,2 2.5,3 5.4,5.8 8.4,8.1 1.3,0.9 2.3,-0.5 3.3,-1.2 2.1,-1.7 4.1,-3.8 6,-5.8V19.5c0.7,-0.9 1.5,-1.8 2.1,-2.8 0.3,-0.5 0.1,-1.1-0.2,-1.6zm-10.8,-6.7 0.3,-0.9h0c0.6,1.7 1.2,3.4 1.8,5.1l-1.3,0 0,0.2 0.2,4.5v0.1c-0.5,0.1-1,0.1-1.5,0l0,0 0.2,-4.7v-0c-0.3,0-0.8,0-1.1,0l1.4,-4.1zM14.9,23.6c0.1,-1.7 0.1,-3.2 0.2,-4.9 0.6,0.1 1.1,0 1.6,0l0,0.2 0.2,4.6c-0.7,0.1-1.4,0-2.1,0zm5.2,-5.8c-3,0.9-6.7,0.9-9.6,-0.4-0.5,-0.2-1.2,-0.6-1.3,-1.2-0.1,-1.1 1,-1.7 1.8,-2.1 0.5,-0.2 0.9,-0.4 1.5,-0.5 0.5,0.4 1,0.6 1.5,1-1,0.3-2.1,0.5-2.6,1.6 0.1,0.8 1,1.1 1.6,1.3 2.3,0.6 4.8,0.5 6.9,-0.3 0.4,-0.2 1.1,-0.5 1,-1.1-0.1,-0.6-0.8,-0.9-1.3,-1.1-0.3,0-0.6,0.1-0.9,0.2-0.2,-0.4-0.3,-0.9-0.5,-1.3 1,0.3 1.9,0.5 2.9,0.7v0c-0.2,0-0.4,0.1-0.6,0.2v0c0.6,0.3 1.4,0.8 1.4,1.5-0.1,0.9-1.1,1.3-1.9,1.6z" fill="#00629B"/></svg>