<svg xmlns="http://www.w3.org/2000/svg" width="32" height="32" viewBox="-0.1 -4 66 66"><style>path{stroke:#ccc;stroke-width:.6;stroke-linejoin:bevel}</style><path fill="#e9e9ff" d="m19 19 9 3v11l-9-3z"/><path fill="#353564" d="M9 22v11l10-3V19z"/><path fill="#afafde" d="m9 33 10 4 9-4-9-3z"/><path d="m9 22 10 4 9-4-9-3z" fill="#f7f7f4"/><path d="M19 26v11l9-4V22z" fill="#fff"/><path d="m9 22 10 4v11L9 33z" fill="#efeeea"/><path fill="#e9e9ff" d="m28 11 10 4v11l-10-4z"/><path fill="#353564" d="M19 15v11l9-4V11z"/><path fill="#afafde" d="m19 26 9 3 10-3-10-4z"/><path fill="#f7f7f4" d="m19 15 9 3 10-3-10-4z"/><path fill="#fff" d="M28 18v11l10-3V15z"/><path fill="#efeeea" d="m19 15 9 3v11l-9-3z"/><path d="m10 33 9 4v11l-9-4z" fill="#e9e9ff"/><path d="M0 37v11l10-4V33z" fill="#353564"/><path d="m0 48 9 3 10-3-9-4z" fill="#afafde"/><path d="m0 37 9 3 10-3-9-4z" fill="#f7f7f4"/><path d="M9 40v11l10-3V37z" fill="#fff"/><path d="m0 37 9 3v11l-9-3z" fill="#efeeea"/><path fill="#e9e9ff" d="m19 37 9 3v11l-9-3z"/><path fill="#353564" d="M9 40v11l10-3V37z"/><path fill="#afafde" d="m9 51 10 3 9-3-9-3z"/><path fill="#f7f7f4" d="m9 40 10 4 9-4-9-3z"/><path fill="#fff" d="M19 44v10l9-3V40z"/><path fill="#efeeea" d="m9 40 10 4v10L9 51z"/><path d="m19 26 9 3v11l-9-3z" fill="#e9e9ff"/><path d="M9 29v11l10-3V26z" fill="#353564"/><path d="m9 40 10 3 9-3-9-3z" fill="#afafde"/><path d="m9 29 10 3 9-3-9-3z" fill="#f7f7f4"/><path d="M19 32v11l9-3V29z" fill="#fff"/><path d="m9 29 10 3v11L9 40z" fill="#efeeea"/><g transform="translate(-1684 -513) scale(.65177)"><path fill="#e9e9ff" d="m2670 833 14 6v16l-14-5z"/><path fill="#353564" d="M2655 839v16l15-5v-17z"/><path fill="#afafde" d="m2655 855 15 6 14-6-14-5z"/><path fill="#f7f7f4" d="m2655 839 15 5 14-5-14-6z"/><path fill="#fff" d="M2670 844v17l14-6v-16z"/><path fill="#efeeea" d="m2655 839 15 5v17l-15-6z"/><path fill="#e9e9ff" d="m2655 839 15 5v17l-15-6z"/><path fill="#353564" d="M2641 844v17l14-6v-16z"/><path fill="#afafde" d="m2641 861 14 5 15-5-15-6z"/><path fill="#f7f7f4" d="m2641 844 14 5 15-5-15-5z"/><path fill="#ffd242" d="M2655 849v17l15-5v-17z"/><path fill="#efeeea" d="m2641 844 14 5v17l-14-5z"/><circle transform="skewY(-20) scale(.9397 1)" cy="1823.9" cx="2835.2" fill="#fff" r="3"/><path d="m2641 844 14 5v17l-14-5z" fill="#e9e9ff"/><path d="M2626 849v17l15-5v-17z" fill="#353564"/><path d="m2626 866 15 5 14-5-14-5z" fill="#afafde"/><path d="m2626 849 15 5 14-5-14-5z" fill="#f7f7f4"/><path d="M2641 854v17l14-5v-17z" fill="#ffd242"/><path d="m2626 849 15 5v17l-15-5z" fill="#efeeea"/><path fill="#e9e9ff" d="m2627 849 14 5v17l-14-5z"/><path fill="#353564" d="M2612 854v17l15-5v-17z"/><path fill="#afafde" d="m2612 871 14 5 15-5-14-5z"/><path fill="#f7f7f4" d="m2612 854 14 6 15-6-14-5z"/><path fill="#fff" d="M2626 860v16l15-5v-17z"/><path fill="#efeeea" d="m2612 854 14 6v16l-14-5z"/><path d="m2670 816 14 6v16l-14-5z" fill="#e9e9ff"/><path d="M2655 822v16l15-5v-17z" fill="#353564"/><path d="m2655 838 15 6 14-6-14-5z" fill="#afafde"/><path d="m2655 822 15 5 14-5-14-6z" fill="#f7f7f4"/><path d="M2670 827v17l14-6v-16z" fill="#ffd242"/><path d="m2655 822 15 5v17l-15-6z" fill="#efeeea"/><path fill="#e9e9ff" d="m2670 799 14 6v16l-14-5z"/><path fill="#353564" d="M2655 805v17l15-6v-17z"/><path fill="#afafde" d="m2655 822 15 5 14-6-14-5z"/><path fill="#ffc91d" d="m2655 805 15 5 14-5-14-6z"/><path fill="#ffd242" d="M2670 810v17l14-6v-16z"/><path fill="#efeeea" d="m2655 805 15 5v17l-15-5z"/><path fill="#e9e9ff" d="m2655 822 15 5v17l-15-6z"/><path fill="#353564" d="M2641 827v17l14-6v-16z"/><path fill="#afafde" d="m2641 844 14 5 15-5-15-6z"/><path fill="#f7f7f4" d="m2641 827 14 5 15-5-15-5z"/><path fill="#ffd242" d="M2655 832v17l15-5v-17z"/><path fill="#efeeea" d="m2641 827 14 5v17l-14-5z"/><path d="m2655 805 15 5v17l-15-6z" fill="#e9e9ff"/><path d="M2641 810v17l14-6v-16z" fill="#353564"/><path d="m2641 827 14 5 15-5-15-6z" fill="#afafde"/><path d="m2641 810 14 5 15-5-15-5z" fill="#f7f7f4"/><path d="M2655 815v17l15-5v-17z" fill="#3775a9"/><path d="m2641 810 14 5v17l-14-5z" fill="#efeeea"/><path fill="#e9e9ff" d="m2655 788 15 5v17l-15-6z"/><path fill="#353564" d="M2641 793v17l14-6v-16z"/><path fill="#afafde" d="m2641 810 14 5 15-5-15-6z"/><path fill="#2f6491" d="m2641 793 14 5 15-5-15-5z"/><path fill="#3775a9" d="M2655 798v17l15-5v-17z"/><path fill="#efeeea" d="m2641 793 14 5v17l-14-5z"/><path d="m2641 827 14 5v17l-14-5z" fill="#e9e9ff"/><path d="M2626 832v17l15-5v-17z" fill="#353564"/><path d="m2626 849 15 5 14-5-14-5z" fill="#afafde"/><path d="m2626 832 15 5 14-5-14-5z" fill="#f7f7f4"/><path d="M2641 837v17l14-5v-17z" fill="#ffd242"/><path d="m2626 832 15 5v17l-15-5z" fill="#efeeea"/><path fill="#e9e9ff" d="m2641 810 14 5v17l-14-5z"/><path fill="#353564" d="M2626 815v17l15-5v-17z"/><path fill="#afafde" d="m2626 832 15 5 14-5-14-5z"/><path fill="#f7f7f4" d="m2626 815 15 5 14-5-14-5z"/><path fill="#3775a9" d="M2641 820v17l14-5v-17z"/><path fill="#efeeea" d="m2626 815 15 5v17l-15-5z"/><path fill="#e9e9ff" d="m2627 832 14 5v17l-14-5z"/><path fill="#353564" d="M2612 837v17l15-5v-17z"/><path fill="#afafde" d="m2612 854 14 5 15-5-14-5z"/><path fill="#f7f7f4" d="m2612 837 14 6 15-6-14-5z"/><path fill="#3775a9" d="M2626 843v16l15-5v-17z"/><path fill="#2f6491" d="m2612 837 14 6v16l-14-5z"/><path d="m2627 815 14 5v17l-14-5z" fill="#e9e9ff"/><path d="M2612 820v17l15-5v-17z" fill="#353564"/><path d="m2612 837 14 5 15-5-14-5z" fill="#afafde"/><path d="m2612 820 14 6 15-6-14-5z" fill="#2f6491"/><path d="M2626 826v16l15-5v-17z" fill="#3775a9"/><path d="m2612 820 14 6v16l-14-5z" fill="#2f6491"/><path fill="#e9e9ff" d="m2641 793 14 5v17l-14-5z"/><path fill="#353564" d="M2626 798v17l15-5v-17z"/><path fill="#afafde" d="m2626 815 15 5 14-5-14-5z"/><path fill="#2f6491" d="m2626 798 15 5 14-5-14-5z"/><path fill="#3775a9" d="M2641 803v17l14-5v-17z"/><path fill="#2f6491" d="m2626 798 15 5v17l-15-5z"/><circle transform="skewY(-20) scale(.9397 1)" cy="1772.9" cx="2816" fill="#fff" r="3"/></g></svg>