<svg xmlns="http://www.w3.org/2000/svg" width="32" height="32" viewBox="-0.1 -4 66 66"><style>path{stroke:#ccc;stroke-width:.07269443;stroke-linejoin:bevel}</style><path fill="#e9e9ff" d="m19 18.8 9.3 3.4v11l-9.4-3.4z"/><path fill="#353564" d="M9.5 22.3v11l9.4-3.5v-11z"/><path fill="#afafde" d="m9.5 33.2 9.3 3.4 9.5-3.4-9.4-3.4z"/><path d="m9.5 22.3 9.3 3.4 9.5-3.5-9.4-3.4z" fill="#f7f7f4"/><path d="M18.8 25.7v11l9.5-3.5v-11z" fill="#fff"/><path d="m9.5 22.3 9.3 3.4v11l-9.3-3.5z" fill="#efeeea"/><path fill="#e9e9ff" d="m28.3 11.2 9.3 3.4v11L28.3 22z"/><path fill="#353564" d="M18.8 14.6v11l9.5-3.5v-11z"/><path fill="#afafde" d="m18.8 25.6 9.4 3.4 9.4-3.5-9.3-3.4z"/><path fill="#f7f7f4" d="m18.8 14.6 9.4 3.4 9.4-3.4-9.3-3.4z"/><path fill="#fff" d="M28.2 18v11l9.4-3.5v-11z"/><path fill="#efeeea" d="m18.8 14.6 9.4 3.4v11l-9.4-3.4z"/><path d="m9.6 33.3 9.3 3.4v11l-9.3-3.4z" fill="#e9e9ff"/><path d="M.1 36.7v11l9.5-3.4v-11z" fill="#353564"/><path d="m.1 47.7 9.3 3.4 9.5-3.5-9.3-3.3z" fill="#afafde"/><path d="m.1 36.7 9.3 3.4 9.5-3.4-9.3-3.4z" fill="#f7f7f4"/><path d="M9.4 40.1v11l9.5-3.5v-11z" fill="#fff"/><path d="m.1 36.7 9.3 3.4v11L.1 47.7z" fill="#efeeea"/><path fill="#e9e9ff" d="m19 36.7 9.3 3.4v11l-9.4-3.4z"/><path fill="#353564" d="M9.5 40.1v11l9.4-3.4v-11z"/><path fill="#afafde" d="m9.5 51.1 9.3 3.4 9.5-3.4-9.4-3.4z"/><path fill="#f7f7f4" d="m9.5 40.1 9.3 3.4 9.5-3.4-9.4-3.4z"/><path fill="#fff" d="M18.8 43.5v11l9.5-3.4V40z"/><path fill="#efeeea" d="m9.5 40.1 9.3 3.4v11l-9.3-3.4z"/><path d="m19 25.6 9.3 3.4v11l-9.4-3.4z" fill="#e9e9ff"/><path d="M9.5 29v11l9.4-3.4v-11z" fill="#353564"/><path d="m9.5 40 9.3 3.4 9.5-3.4-9.4-3.4z" fill="#afafde"/><path d="m9.5 29 9.3 3.5 9.5-3.5-9.4-3.4z" fill="#f7f7f4"/><path d="M18.8 32.5v11l9.5-3.5V29z" fill="#fff"/><path d="m9.5 29 9.3 3.5v11L9.5 40z" fill="#efeeea"/><g transform="translate(-1683.7 -513.3) scale(.65177)"><path fill="#e9e9ff" d="m2669.7 833.4 14.3 5.2v16.8l-14.3-5.2z"/><path fill="#353564" d="M2655.2 838.7v16.8l14.5-5.3v-16.8z"/><path fill="#afafde" d="m2655.2 855.5 14.3 5.2 14.5-5.3-14.3-5.2z"/><path fill="#f7f7f4" d="m2655.2 838.7 14.3 5.2 14.5-5.3-14.3-5.2z"/><path fill="#fff" d="M2669.5 843.9v16.8l14.5-5.3v-16.8z"/><path fill="#efeeea" d="m2655.2 838.7 14.3 5.2v16.8l-14.3-5.2z"/><path fill="#e9e9ff" d="m2655.3 838.6 14.4 5.2v16.8l-14.4-5.2z"/><path fill="#353564" d="M2640.8 843.9v16.8l14.5-5.3v-16.8z"/><path fill="#afafde" d="m2640.8 860.7 14.3 5.2 14.6-5.3-14.4-5.2z"/><path fill="#f7f7f4" d="m2640.8 843.9 14.3 5.2 14.6-5.3-14.4-5.2z"/><path fill="#ffd242" d="M2655.1 849v17l14.6-5.3v-16.8z"/><path fill="#efeeea" d="m2640.8 843.9 14.3 5.2v16.8l-14.3-5.2z"/><circle transform="skewY(-20) scale(.9397 1)" cy="1823.9" cx="2835.2" fill="#fff" r="3"/><path d="m2641 843.8 14.3 5.2v16.8l-14.3-5.2z" fill="#e9e9ff"/><path d="M2626.5 849.1v16.8l14.5-5.3v-16.8z" fill="#353564"/><path d="m2626.5 866 14.3 5.1 14.5-5.3-14.3-5.2z" fill="#afafde"/><path d="m2626.5 849.1 14.3 5.2 14.5-5.3-14.3-5.2z" fill="#f7f7f4"/><path d="M2640.8 854.3v16.8l14.5-5.3V849z" fill="#ffd242"/><path d="m2626.5 849.1 14.3 5.2v16.8l-14.3-5.2z" fill="#efeeea"/><path fill="#e9e9ff" d="m2626.6 849 14.3 5.2v16.9l-14.3-5.2z"/><path fill="#353564" d="M2612.1 854.3v16.8l14.5-5.2V849z"/><path fill="#afafde" d="m2612.1 871.1 14.3 5.2 14.5-5.2-14.3-5.2z"/><path fill="#f7f7f4" d="m2612.1 854.3 14.3 5.2 14.5-5.3-14.3-5.2z"/><path fill="#fff" d="M2626.4 859.5v16.8l14.5-5.2v-16.9z"/><path fill="#efeeea" d="m2612.1 854.3 14.3 5.2v16.8l-14.3-5.2z"/><path d="m2669.7 816.4 14.3 5.2v16.8l-14.3-5.2z" fill="#e9e9ff"/><path d="M2655.2 821.7v16.8l14.5-5.3v-16.8z" fill="#353564"/><path d="m2655.2 838.5 14.3 5.2 14.5-5.3-14.3-5.2z" fill="#afafde"/><path d="m2655.2 821.7 14.3 5.2 14.5-5.3-14.3-5.2z" fill="#f7f7f4"/><path d="M2669.5 826.9v16.8l14.5-5.3v-16.8z" fill="#ffd242"/><path d="m2655.2 821.7 14.3 5.2v16.8l-14.3-5.2z" fill="#efeeea"/><path fill="#e9e9ff" d="m2669.7 799.4 14.3 5.2v16.8l-14.3-5.2z"/><path fill="#353564" d="M2655.2 804.7v16.8l14.5-5.3v-16.8z"/><path fill="#afafde" d="m2655.2 821.5 14.3 5.2 14.5-5.3-14.3-5.2z"/><path fill="#ffc91d" d="m2655.2 804.7 14.3 5.2 14.5-5.3-14.3-5.2z"/><path fill="#ffd242" d="M2669.5 809.9v16.8l14.5-5.3v-16.8z"/><path fill="#efeeea" d="m2655.2 804.7 14.3 5.2v16.8l-14.3-5.2z"/><path fill="#e9e9ff" d="m2655.3 821.6 14.4 5.2v16.8l-14.4-5.2z"/><path fill="#353564" d="M2640.8 826.9v16.8l14.5-5.3v-16.8z"/><path fill="#afafde" d="m2640.8 843.7 14.3 5.2 14.6-5.3-14.4-5.2z"/><path fill="#f7f7f4" d="m2640.8 826.9 14.3 5.2 14.6-5.3-14.4-5.2z"/><path fill="#ffd242" d="M2655.1 832.1V849l14.6-5.3v-16.8z"/><path fill="#efeeea" d="m2640.8 826.9 14.3 5.2V849l-14.3-5.2z"/><path d="m2655.3 804.6 14.4 5.2v16.9l-14.4-5.3z" fill="#e9e9ff"/><path d="M2640.8 810v16.7l14.5-5.3v-16.8z" fill="#353564"/><path d="m2640.8 826.7 14.3 5.2 14.6-5.2-14.4-5.3z" fill="#afafde"/><path d="m2640.8 810 14.3 5.1 14.6-5.3-14.4-5.2z" fill="#f7f7f4"/><path d="M2655.1 815.1V832l14.6-5.2v-16.9z" fill="#3775a9"/><path d="m2640.8 810 14.3 5.1V832l-14.3-5.2z" fill="#efeeea"/><path fill="#e9e9ff" d="m2655.3 787.7 14.4 5.2v16.8l-14.4-5.2z"/><path fill="#353564" d="M2640.8 793v16.8l14.5-5.3v-16.8z"/><path fill="#afafde" d="m2640.8 809.8 14.3 5.2 14.6-5.3-14.4-5.2z"/><path fill="#2f6491" d="m2640.8 793 14.3 5.1 14.6-5.2-14.4-5.2z"/><path fill="#3775a9" d="M2655.1 798.1V815l14.6-5.3v-16.8z"/><path fill="#efeeea" d="m2640.8 793 14.3 5.1V815l-14.3-5.2z"/><path d="m2641 826.8 14.3 5.2v17l-14.3-5.2z" fill="#e9e9ff"/><path d="M2626.5 832.1V849l14.5-5.2v-16.9z" fill="#353564"/><path d="m2626.5 849 14.3 5.1 14.5-5.2-14.3-5.2z" fill="#afafde"/><path d="m2626.5 832.1 14.3 5.2 14.5-5.3-14.3-5.2z" fill="#f7f7f4"/><path d="M2640.8 837.3v16.8l14.5-5.2V832z" fill="#ffd242"/><path d="m2626.5 832.1 14.3 5.2v16.8l-14.3-5.2z" fill="#efeeea"/><path fill="#e9e9ff" d="m2641 809.9 14.3 5.2v16.8l-14.3-5.2z"/><path fill="#353564" d="M2626.5 815.1V832l14.5-5.3v-16.8z"/><path fill="#afafde" d="m2626.5 832 14.3 5.2 14.5-5.3-14.3-5.2z"/><path fill="#f7f7f4" d="m2626.5 815.1 14.3 5.3 14.5-5.3-14.3-5.2z"/><path fill="#3775a9" d="M2640.8 820.4v16.8l14.5-5.3V815z"/><path fill="#efeeea" d="m2626.5 815.1 14.3 5.3v16.8l-14.3-5.2z"/><path fill="#e9e9ff" d="m2626.6 832 14.3 5.3V854l-14.3-5.2z"/><path fill="#353564" d="M2612.1 837.3v16.9l14.5-5.3V832z"/><path fill="#afafde" d="m2612.1 854.2 14.3 5.2 14.5-5.3-14.3-5.2z"/><path fill="#f7f7f4" d="m2612.1 837.3 14.3 5.3 14.5-5.3-14.3-5.2z"/><path fill="#3775a9" d="M2626.4 842.6v16.8l14.5-5.3v-16.8z"/><path fill="#2f6491" d="m2612.1 837.3 14.3 5.3v16.8l-14.3-5.2z"/><path d="m2626.6 815 14.3 5.3V837l-14.3-5.2z" fill="#e9e9ff"/><path d="M2612.1 820.4v16.8l14.5-5.3v-16.8z" fill="#353564"/><path d="m2612.1 837.2 14.3 5.2 14.5-5.3-14.3-5.2z" fill="#afafde"/><path d="m2612.1 820.4 14.3 5.2 14.5-5.3-14.3-5.2z" fill="#2f6491"/><path d="M2626.4 825.6v16.8l14.5-5.3v-16.8z" fill="#3775a9"/><path d="m2612.1 820.4 14.3 5.2v16.8l-14.3-5.2z" fill="#2f6491"/><path fill="#e9e9ff" d="m2641 792.9 14.3 5.2v16.8l-14.3-5.2z"/><path fill="#353564" d="M2626.5 798.2V815l14.5-5.3v-16.8z"/><path fill="#afafde" d="m2626.5 815 14.3 5.2 14.5-5.3-14.3-5.2z"/><path fill="#2f6491" d="m2626.5 798.2 14.3 5.2 14.5-5.3-14.3-5.2z"/><path fill="#3775a9" d="M2640.8 803.4v16.8l14.5-5.3v-16.8z"/><path fill="#2f6491" d="m2626.5 798.2 14.3 5.2v16.8l-14.3-5.2z"/><circle transform="skewY(-20) scale(.9397 1)" cy="1772.9" cx="2816" fill="#fff" r="3"/></g></svg>