<svg xmlns="http://www.w3.org/2000/svg" width="65.812035" height="58" viewBox="0 0 65.812035 58.000001"><style>path{stroke:#ccc;stroke-width:0.07269443;stroke-linejoin:bevel;}</style><g transform="translate(-102.23636,-759.89403)"><g transform="matrix(0.59931016,0,0,0.59931016,-87.829325,346.0436)"><g transform="translate(-2257.2276,-96.96281)"><g transform="matrix(4.8845054,0,0,4.8845054,3516.0799,527.1875)"><path fill="#e9e9ff" d="m -186.32897,59.726319 3.18465,1.159119 0,3.742997 -3.18465,-1.159119 z"/><path fill="#353564" d="m -189.56075,60.902593 0,3.742997 3.23178,-1.176274 0,-3.742997 z"/><path fill="#afafde" d="m -189.56075,64.64559 3.18465,1.159118 3.23178,-1.176273 -3.18465,-1.159119 z"/><path d="m -189.56075,60.902593 3.18465,1.159118 3.23178,-1.176273 -3.18465,-1.159119 z" fill="#f7f7f4"/><path d="m -186.3761,62.061711 0,3.742997 3.23178,-1.176273 0,-3.742997 z" fill="#fff"/><path d="m -189.56075,60.902593 3.18465,1.159118 0,3.742997 -3.18465,-1.159118 z" fill="#efeeea"/></g><g transform="matrix(4.8845053,0,0,4.8845053,3531.7032,514.40474)"><path fill="#e9e9ff" d="m -186.32897,59.726319 3.18465,1.159119 0,3.742997 -3.18465,-1.159119 z"/><path fill="#353564" d="m -189.56075,60.902593 0,3.742997 3.23178,-1.176274 0,-3.742997 z"/><path fill="#afafde" d="m -189.56075,64.64559 3.18465,1.159118 3.23178,-1.176273 -3.18465,-1.159119 z"/><path fill="#f7f7f4" d="m -189.56075,60.902593 3.18465,1.159118 3.23178,-1.176273 -3.18465,-1.159119 z"/><path fill="#fff" d="m -186.3761,62.061711 0,3.742997 3.23178,-1.176273 0,-3.742997 z"/><path fill="#efeeea" d="m -189.56075,60.902593 3.18465,1.159118 0,3.742997 -3.18465,-1.159118 z"/></g><g transform="matrix(4.8845053,0,0,4.8845053,3500.4564,551.33268)"><path d="m -186.32897,59.726319 3.18465,1.159119 0,3.742997 -3.18465,-1.159119 z" fill="#e9e9ff"/><path d="m -189.56075,60.902593 0,3.742997 3.23178,-1.176274 0,-3.742997 z" fill="#353564"/><path d="m -189.56075,64.64559 3.18465,1.159118 3.23178,-1.176273 -3.18465,-1.159119 z" fill="#afafde"/><path d="m -189.56075,60.902593 3.18465,1.159118 3.23178,-1.176273 -3.18465,-1.159119 z" fill="#f7f7f4"/><path d="m -186.3761,62.061711 0,3.742997 3.23178,-1.176273 0,-3.742997 z" fill="#fff"/><path d="m -189.56075,60.902593 3.18465,1.159118 0,3.742997 -3.18465,-1.159118 z" fill="#efeeea"/></g></g><g transform="translate(-2257.2276,-96.96281)"><g transform="matrix(4.8845053,0,0,4.8845053,3516.0798,557.0139)"><path fill="#e9e9ff" d="m -186.32897,59.726319 3.18465,1.159119 0,3.742997 -3.18465,-1.159119 z"/><path fill="#353564" d="m -189.56075,60.902593 0,3.742997 3.23178,-1.176274 0,-3.742997 z"/><path fill="#afafde" d="m -189.56075,64.64559 3.18465,1.159118 3.23178,-1.176273 -3.18465,-1.159119 z"/><path fill="#f7f7f4" d="m -189.56075,60.902593 3.18465,1.159118 3.23178,-1.176273 -3.18465,-1.159119 z"/><path fill="#fff" d="m -186.3761,62.061711 0,3.742997 3.23178,-1.176273 0,-3.742997 z"/><path fill="#efeeea" d="m -189.56075,60.902593 3.18465,1.159118 0,3.742997 -3.18465,-1.159118 z"/></g><g transform="matrix(4.8845053,0,0,4.8845053,3516.0798,538.54993)"><path d="m -186.32897,59.726319 3.18465,1.159119 0,3.742997 -3.18465,-1.159119 z" fill="#e9e9ff"/><path d="m -189.56075,60.902593 0,3.742997 3.23178,-1.176274 0,-3.742997 z" fill="#353564"/><path d="m -189.56075,64.64559 3.18465,1.159118 3.23178,-1.176273 -3.18465,-1.159119 z" fill="#afafde"/><path d="m -189.56075,60.902593 3.18465,1.159118 3.23178,-1.176273 -3.18465,-1.159119 z" fill="#f7f7f4"/><path d="m -186.3761,62.061711 0,3.742997 3.23178,-1.176273 0,-3.742997 z" fill="#fff"/><path d="m -189.56075,60.902593 3.18465,1.159118 0,3.742997 -3.18465,-1.159118 z" fill="#efeeea"/></g><g transform="matrix(1.0875356,0,0,1.0875356,-234.9615,-68.934961)"><g transform="matrix(4.4913521,0,0,4.4913521,3506.5838,565.11843)"><path fill="#e9e9ff" d="m -186.32897,59.726319 3.18465,1.159119 0,3.742997 -3.18465,-1.159119 z"/><path fill="#353564" d="m -189.56075,60.902593 0,3.742997 3.23178,-1.176274 0,-3.742997 z"/><path fill="#afafde" d="m -189.56075,64.64559 3.18465,1.159118 3.23178,-1.176273 -3.18465,-1.159119 z"/><path fill="#f7f7f4" d="m -189.56075,60.902593 3.18465,1.159118 3.23178,-1.176273 -3.18465,-1.159119 z"/><path fill="#fff" d="m -186.3761,62.061711 0,3.742997 3.23178,-1.176273 0,-3.742997 z"/><path fill="#efeeea" d="m -189.56075,60.902593 3.18465,1.159118 0,3.742997 -3.18465,-1.159118 z"/></g><g transform="matrix(4.4913521,0,0,4.4913521,3492.218,570.34238)"><path fill="#e9e9ff" d="m -186.32897,59.726319 3.18465,1.159119 0,3.742997 -3.18465,-1.159119 z"/><path fill="#353564" d="m -189.56075,60.902593 0,3.742997 3.23178,-1.176274 0,-3.742997 z"/><path fill="#afafde" d="m -189.56075,64.64559 3.18465,1.159118 3.23178,-1.176273 -3.18465,-1.159119 z"/><path fill="#f7f7f4" d="m -189.56075,60.902593 3.18465,1.159118 3.23178,-1.176273 -3.18465,-1.159119 z"/><path fill="#ffd242" d="m -186.3761,62.061711 0,3.742997 3.23178,-1.176273 0,-3.742997 z"/><path fill="#efeeea" d="m -189.56075,60.902593 3.18465,1.159118 0,3.742997 -3.18465,-1.159118 z"/></g><circle transform="matrix(0.93969262,-0.34202015,0,1,0,0)" cy="1823.899" cx="2835.2185" fill="#fff" r="2.966594"/><g transform="matrix(4.4913521,0,0,4.4913521,3477.8522,575.56632)"><path d="m -186.32897,59.726319 3.18465,1.159119 0,3.742997 -3.18465,-1.159119 z" fill="#e9e9ff"/><path d="m -189.56075,60.902593 0,3.742997 3.23178,-1.176274 0,-3.742997 z" fill="#353564"/><path d="m -189.56075,64.64559 3.18465,1.159118 3.23178,-1.176273 -3.18465,-1.159119 z" fill="#afafde"/><path d="m -189.56075,60.902593 3.18465,1.159118 3.23178,-1.176273 -3.18465,-1.159119 z" fill="#f7f7f4"/><path d="m -186.3761,62.061711 0,3.742997 3.23178,-1.176273 0,-3.742997 z" fill="#ffd242"/><path d="m -189.56075,60.902593 3.18465,1.159118 0,3.742997 -3.18465,-1.159118 z" fill="#efeeea"/></g><g transform="matrix(4.4913521,0,0,4.4913521,3463.4863,580.79026)"><path fill="#e9e9ff" d="m -186.32897,59.726319 3.18465,1.159119 0,3.742997 -3.18465,-1.159119 z"/><path fill="#353564" d="m -189.56075,60.902593 0,3.742997 3.23178,-1.176274 0,-3.742997 z"/><path fill="#afafde" d="m -189.56075,64.64559 3.18465,1.159118 3.23178,-1.176273 -3.18465,-1.159119 z"/><path fill="#f7f7f4" d="m -189.56075,60.902593 3.18465,1.159118 3.23178,-1.176273 -3.18465,-1.159119 z"/><path fill="#fff" d="m -186.3761,62.061711 0,3.742997 3.23178,-1.176273 0,-3.742997 z"/><path fill="#efeeea" d="m -189.56075,60.902593 3.18465,1.159118 0,3.742997 -3.18465,-1.159118 z"/></g><g transform="matrix(4.4913521,0,0,4.4913521,3506.5838,548.14063)"><path d="m -186.32897,59.726319 3.18465,1.159119 0,3.742997 -3.18465,-1.159119 z" fill="#e9e9ff"/><path d="m -189.56075,60.902593 0,3.742997 3.23178,-1.176274 0,-3.742997 z" fill="#353564"/><path d="m -189.56075,64.64559 3.18465,1.159118 3.23178,-1.176273 -3.18465,-1.159119 z" fill="#afafde"/><path d="m -189.56075,60.902593 3.18465,1.159118 3.23178,-1.176273 -3.18465,-1.159119 z" fill="#f7f7f4"/><path d="m -186.3761,62.061711 0,3.742997 3.23178,-1.176273 0,-3.742997 z" fill="#ffd242"/><path d="m -189.56075,60.902593 3.18465,1.159118 0,3.742997 -3.18465,-1.159118 z" fill="#efeeea"/></g><g transform="matrix(4.4913521,0,0,4.4913521,3506.5838,531.16282)"><path fill="#e9e9ff" d="m -186.32897,59.726319 3.18465,1.159119 0,3.742997 -3.18465,-1.159119 z"/><path fill="#353564" d="m -189.56075,60.902593 0,3.742997 3.23178,-1.176274 0,-3.742997 z"/><path fill="#afafde" d="m -189.56075,64.64559 3.18465,1.159118 3.23178,-1.176273 -3.18465,-1.159119 z"/><path fill="#ffc91d" d="m -189.56075,60.902593 3.18465,1.159118 3.23178,-1.176273 -3.18465,-1.159119 z"/><path fill="#ffd242" d="m -186.3761,62.061711 0,3.742997 3.23178,-1.176273 0,-3.742997 z"/><path fill="#efeeea" d="m -189.56075,60.902593 3.18465,1.159118 0,3.742997 -3.18465,-1.159118 z"/></g><g transform="matrix(4.4913521,0,0,4.4913521,3492.218,553.36457)"><path fill="#e9e9ff" d="m -186.32897,59.726319 3.18465,1.159119 0,3.742997 -3.18465,-1.159119 z"/><path fill="#353564" d="m -189.56075,60.902593 0,3.742997 3.23178,-1.176274 0,-3.742997 z"/><path fill="#afafde" d="m -189.56075,64.64559 3.18465,1.159118 3.23178,-1.176273 -3.18465,-1.159119 z"/><path fill="#f7f7f4" d="m -189.56075,60.902593 3.18465,1.159118 3.23178,-1.176273 -3.18465,-1.159119 z"/><path fill="#ffd242" d="m -186.3761,62.061711 0,3.742997 3.23178,-1.176273 0,-3.742997 z"/><path fill="#efeeea" d="m -189.56075,60.902593 3.18465,1.159118 0,3.742997 -3.18465,-1.159118 z"/></g><g transform="matrix(4.4913521,0,0,4.4913521,3492.218,536.38676)"><path d="m -186.32897,59.726319 3.18465,1.159119 0,3.742997 -3.18465,-1.159119 z" fill="#e9e9ff"/><path d="m -189.56075,60.902593 0,3.742997 3.23178,-1.176274 0,-3.742997 z" fill="#353564"/><path d="m -189.56075,64.64559 3.18465,1.159118 3.23178,-1.176273 -3.18465,-1.159119 z" fill="#afafde"/><path d="m -189.56075,60.902593 3.18465,1.159118 3.23178,-1.176273 -3.18465,-1.159119 z" fill="#f7f7f4"/><path d="m -186.3761,62.061711 0,3.742997 3.23178,-1.176273 0,-3.742997 z" fill="#3775a9"/><path d="m -189.56075,60.902593 3.18465,1.159118 0,3.742997 -3.18465,-1.159118 z" fill="#efeeea"/></g><g transform="matrix(4.4913521,0,0,4.4913521,3492.218,519.40896)"><path fill="#e9e9ff" d="m -186.32897,59.726319 3.18465,1.159119 0,3.742997 -3.18465,-1.159119 z"/><path fill="#353564" d="m -189.56075,60.902593 0,3.742997 3.23178,-1.176274 0,-3.742997 z"/><path fill="#afafde" d="m -189.56075,64.64559 3.18465,1.159118 3.23178,-1.176273 -3.18465,-1.159119 z"/><path fill="#2f6491" d="m -189.56075,60.902593 3.18465,1.159118 3.23178,-1.176273 -3.18465,-1.159119 z"/><path fill="#3775a9" d="m -186.3761,62.061711 0,3.742997 3.23178,-1.176273 0,-3.742997 z"/><path fill="#efeeea" d="m -189.56075,60.902593 3.18465,1.159118 0,3.742997 -3.18465,-1.159118 z"/></g><g transform="matrix(4.4913521,0,0,4.4913521,3477.8522,558.58851)"><path d="m -186.32897,59.726319 3.18465,1.159119 0,3.742997 -3.18465,-1.159119 z" fill="#e9e9ff"/><path d="m -189.56075,60.902593 0,3.742997 3.23178,-1.176274 0,-3.742997 z" fill="#353564"/><path d="m -189.56075,64.64559 3.18465,1.159118 3.23178,-1.176273 -3.18465,-1.159119 z" fill="#afafde"/><path d="m -189.56075,60.902593 3.18465,1.159118 3.23178,-1.176273 -3.18465,-1.159119 z" fill="#f7f7f4"/><path d="m -186.3761,62.061711 0,3.742997 3.23178,-1.176273 0,-3.742997 z" fill="#ffd242"/><path d="m -189.56075,60.902593 3.18465,1.159118 0,3.742997 -3.18465,-1.159118 z" fill="#efeeea"/></g><g transform="matrix(4.4913521,0,0,4.4913521,3477.8522,541.6107)"><path fill="#e9e9ff" d="m -186.32897,59.726319 3.18465,1.159119 0,3.742997 -3.18465,-1.159119 z"/><path fill="#353564" d="m -189.56075,60.902593 0,3.742997 3.23178,-1.176274 0,-3.742997 z"/><path fill="#afafde" d="m -189.56075,64.64559 3.18465,1.159118 3.23178,-1.176273 -3.18465,-1.159119 z"/><path fill="#f7f7f4" d="m -189.56075,60.902593 3.18465,1.159118 3.23178,-1.176273 -3.18465,-1.159119 z"/><path fill="#3775a9" d="m -186.3761,62.061711 0,3.742997 3.23178,-1.176273 0,-3.742997 z"/><path fill="#efeeea" d="m -189.56075,60.902593 3.18465,1.159118 0,3.742997 -3.18465,-1.159118 z"/></g><g transform="matrix(4.4913521,0,0,4.4913521,3463.4863,563.81245)"><path fill="#e9e9ff" d="m -186.32897,59.726319 3.18465,1.159119 0,3.742997 -3.18465,-1.159119 z"/><path fill="#353564" d="m -189.56075,60.902593 0,3.742997 3.23178,-1.176274 0,-3.742997 z"/><path fill="#afafde" d="m -189.56075,64.64559 3.18465,1.159118 3.23178,-1.176273 -3.18465,-1.159119 z"/><path fill="#f7f7f4" d="m -189.56075,60.902593 3.18465,1.159118 3.23178,-1.176273 -3.18465,-1.159119 z"/><path fill="#3775a9" d="m -186.3761,62.061711 0,3.742997 3.23178,-1.176273 0,-3.742997 z"/><path fill="#2f6491" d="m -189.56075,60.902593 3.18465,1.159118 0,3.742997 -3.18465,-1.159118 z"/></g><g transform="matrix(4.4913521,0,0,4.4913521,3463.4863,546.83464)"><path d="m -186.32897,59.726319 3.18465,1.159119 0,3.742997 -3.18465,-1.159119 z" fill="#e9e9ff"/><path d="m -189.56075,60.902593 0,3.742997 3.23178,-1.176274 0,-3.742997 z" fill="#353564"/><path d="m -189.56075,64.64559 3.18465,1.159118 3.23178,-1.176273 -3.18465,-1.159119 z" fill="#afafde"/><path d="m -189.56075,60.902593 3.18465,1.159118 3.23178,-1.176273 -3.18465,-1.159119 z" fill="#2f6491"/><path d="m -186.3761,62.061711 0,3.742997 3.23178,-1.176273 0,-3.742997 z" fill="#3775a9"/><path d="m -189.56075,60.902593 3.18465,1.159118 0,3.742997 -3.18465,-1.159118 z" fill="#2f6491"/></g><g transform="matrix(4.4913521,0,0,4.4913521,3477.8522,524.6329)"><path fill="#e9e9ff" d="m -186.32897,59.726319 3.18465,1.159119 0,3.742997 -3.18465,-1.159119 z"/><path fill="#353564" d="m -189.56075,60.902593 0,3.742997 3.23178,-1.176274 0,-3.742997 z"/><path fill="#afafde" d="m -189.56075,64.64559 3.18465,1.159118 3.23178,-1.176273 -3.18465,-1.159119 z"/><path fill="#2f6491" d="m -189.56075,60.902593 3.18465,1.159118 3.23178,-1.176273 -3.18465,-1.159119 z"/><path fill="#3775a9" d="m -186.3761,62.061711 0,3.742997 3.23178,-1.176273 0,-3.742997 z"/><path fill="#2f6491" d="m -189.56075,60.902593 3.18465,1.159118 0,3.742997 -3.18465,-1.159118 z"/></g><circle transform="matrix(0.93969262,-0.34202015,0,1,0,0)" cy="1772.9225" cx="2816.0166" fill="#fff" r="2.966594"/></g></g></g></g></svg>