<svg xmlns="http://www.w3.org/2000/svg" width="65.812035" height="58" viewBox="0 0 65.812035 58.000001"><g transform="translate(-102.23636,-759.89403)">
<style>
.c1 {color:#000000;clip-rule:nonzero;display:inline;overflow:visible;visibility:visible;opacity:1;isolation:auto;mix-blend-mode:normal;color-interpolation:sRGB;color-interpolation-filters:linearRGB;solid-color:#000000;solid-opacity:1;fill-opacity:1;fill-rule:nonzero;stroke:#cccccc;stroke-width:0.07269443;stroke-linecap:butt;stroke-linejoin:bevel;stroke-miterlimit:4;stroke-dasharray:none;stroke-dashoffset:0;stroke-opacity:1;color-rendering:auto;image-rendering:auto;shape-rendering:auto;text-rendering:auto;enable-background:accumulate;}
.c2 {fill-opacity:1;stroke:#cccccc;stroke-width:0.07269443;stroke-linejoin:bevel;stroke-miterlimit:4;stroke-dasharray:none;}
</style>
<g transform="matrix(0.59931016,0,0,0.59931016,-87.829325,346.0436)">
<g transform="translate(-2257.2276,-96.96281)">
<g style="fill:#a29d86;fill-opacity:1;stroke:#cccccc;stroke-width:0.07269443;stroke-linejoin:bevel;stroke-miterlimit:4;stroke-dasharray:none" transform="matrix(4.8845054,0,0,4.8845054,3516.0799,527.1875)">
<path class="c1" fill="#e9e9ff" d="m -186.32897,59.726319 3.18465,1.159119 0,3.742997 -3.18465,-1.159119 z"/>
<path class="c1" fill="#353564" d="m -189.56075,60.902593 0,3.742997 3.23178,-1.176274 0,-3.742997 z"/>
<path class="c1" fill="#afafde" d="m -189.56075,64.64559 3.18465,1.159118 3.23178,-1.176273 -3.18465,-1.159119 z"/>
<path d="m -189.56075,60.902593 3.18465,1.159118 3.23178,-1.176273 -3.18465,-1.159119 z" class="c2" fill="#f7f7f4"/>
<path d="m -186.3761,62.061711 0,3.742997 3.23178,-1.176273 0,-3.742997 z" class="c2" fill="#ffffff"/>
<path d="m -189.56075,60.902593 3.18465,1.159118 0,3.742997 -3.18465,-1.159118 z" class="c2" fill="#efeeea"/>
</g>
<g transform="matrix(4.8845053,0,0,4.8845053,3531.7032,514.40474)" style="fill:#a29d86;fill-opacity:1;stroke:#cccccc;stroke-width:0.07269443;stroke-linejoin:bevel;stroke-miterlimit:4;stroke-dasharray:none">
<path class="c1" fill="#e9e9ff" d="m -186.32897,59.726319 3.18465,1.159119 0,3.742997 -3.18465,-1.159119 z"/>
<path class="c1" fill="#353564" d="m -189.56075,60.902593 0,3.742997 3.23178,-1.176274 0,-3.742997 z"/>
<path class="c1" fill="#afafde" d="m -189.56075,64.64559 3.18465,1.159118 3.23178,-1.176273 -3.18465,-1.159119 z"/>
<path class="c2" fill="#f7f7f4" d="m -189.56075,60.902593 3.18465,1.159118 3.23178,-1.176273 -3.18465,-1.159119 z"/>
<path class="c2" fill="#ffffff" d="m -186.3761,62.061711 0,3.742997 3.23178,-1.176273 0,-3.742997 z"/>
<path class="c2" fill="#efeeea" d="m -189.56075,60.902593 3.18465,1.159118 0,3.742997 -3.18465,-1.159118 z"/>
</g>
<g style="fill:#a29d86;fill-opacity:1;stroke:#cccccc;stroke-width:0.07269443;stroke-linejoin:bevel;stroke-miterlimit:4;stroke-dasharray:none" transform="matrix(4.8845053,0,0,4.8845053,3500.4564,551.33268)">
<path d="m -186.32897,59.726319 3.18465,1.159119 0,3.742997 -3.18465,-1.159119 z" class="c1" fill="#e9e9ff"/>
<path d="m -189.56075,60.902593 0,3.742997 3.23178,-1.176274 0,-3.742997 z" class="c1" fill="#353564"/>
<path d="m -189.56075,64.64559 3.18465,1.159118 3.23178,-1.176273 -3.18465,-1.159119 z" class="c1" fill="#afafde"/>
<path d="m -189.56075,60.902593 3.18465,1.159118 3.23178,-1.176273 -3.18465,-1.159119 z" class="c2" fill="#f7f7f4"/>
<path d="m -186.3761,62.061711 0,3.742997 3.23178,-1.176273 0,-3.742997 z" class="c2" fill="#ffffff"/>
<path d="m -189.56075,60.902593 3.18465,1.159118 0,3.742997 -3.18465,-1.159118 z" class="c2" fill="#efeeea"/>
</g>
</g>
<g transform="translate(-2257.2276,-96.96281)">
<g transform="matrix(4.8845053,0,0,4.8845053,3516.0798,557.0139)" style="fill:#a29d86;fill-opacity:1;stroke:#cccccc;stroke-width:0.07269443;stroke-linejoin:bevel;stroke-miterlimit:4;stroke-dasharray:none">
<path class="c1" fill="#e9e9ff" d="m -186.32897,59.726319 3.18465,1.159119 0,3.742997 -3.18465,-1.159119 z"/>
<path class="c1" fill="#353564" d="m -189.56075,60.902593 0,3.742997 3.23178,-1.176274 0,-3.742997 z"/>
<path class="c1" fill="#afafde" d="m -189.56075,64.64559 3.18465,1.159118 3.23178,-1.176273 -3.18465,-1.159119 z"/>
<path class="c2" fill="#f7f7f4" d="m -189.56075,60.902593 3.18465,1.159118 3.23178,-1.176273 -3.18465,-1.159119 z"/>
<path class="c2" fill="#ffffff" d="m -186.3761,62.061711 0,3.742997 3.23178,-1.176273 0,-3.742997 z"/>
<path class="c2" fill="#efeeea" d="m -189.56075,60.902593 3.18465,1.159118 0,3.742997 -3.18465,-1.159118 z"/>
</g>
<g style="fill:#a29d86;fill-opacity:1;stroke:#cccccc;stroke-width:0.07269443;stroke-linejoin:bevel;stroke-miterlimit:4;stroke-dasharray:none" transform="matrix(4.8845053,0,0,4.8845053,3516.0798,538.54993)">
<path d="m -186.32897,59.726319 3.18465,1.159119 0,3.742997 -3.18465,-1.159119 z" class="c1" fill="#e9e9ff"/>
<path d="m -189.56075,60.902593 0,3.742997 3.23178,-1.176274 0,-3.742997 z" class="c1" fill="#353564"/>
<path d="m -189.56075,64.64559 3.18465,1.159118 3.23178,-1.176273 -3.18465,-1.159119 z" class="c1" fill="#afafde"/>
<path d="m -189.56075,60.902593 3.18465,1.159118 3.23178,-1.176273 -3.18465,-1.159119 z" class="c2" fill="#f7f7f4"/>
<path d="m -186.3761,62.061711 0,3.742997 3.23178,-1.176273 0,-3.742997 z" class="c2" fill="#ffffff"/>
<path d="m -189.56075,60.902593 3.18465,1.159118 0,3.742997 -3.18465,-1.159118 z" class="c2" fill="#efeeea"/>
</g>
<g transform="matrix(1.0875356,0,0,1.0875356,-234.9615,-68.934961)">
<g transform="matrix(4.4913521,0,0,4.4913521,3506.5838,565.11843)" style="fill:#a29d86;fill-opacity:1;stroke:#cccccc;stroke-width:0.07269443;stroke-linejoin:bevel;stroke-miterlimit:4;stroke-dasharray:none">
<path class="c1" fill="#e9e9ff" d="m -186.32897,59.726319 3.18465,1.159119 0,3.742997 -3.18465,-1.159119 z"/>
<path class="c1" fill="#353564" d="m -189.56075,60.902593 0,3.742997 3.23178,-1.176274 0,-3.742997 z"/>
<path class="c1" fill="#afafde" d="m -189.56075,64.64559 3.18465,1.159118 3.23178,-1.176273 -3.18465,-1.159119 z"/>
<path class="c2" fill="#f7f7f4" d="m -189.56075,60.902593 3.18465,1.159118 3.23178,-1.176273 -3.18465,-1.159119 z"/>
<path class="c2" fill="#ffffff" d="m -186.3761,62.061711 0,3.742997 3.23178,-1.176273 0,-3.742997 z"/>
<path class="c2" fill="#efeeea" d="m -189.56075,60.902593 3.18465,1.159118 0,3.742997 -3.18465,-1.159118 z"/>
</g>
<g transform="matrix(4.4913521,0,0,4.4913521,3492.218,570.34238)" style="fill:#a29d86;fill-opacity:1;stroke:#cccccc;stroke-width:0.07269443;stroke-linejoin:bevel;stroke-miterlimit:4;stroke-dasharray:none">
<path class="c1" fill="#e9e9ff" d="m -186.32897,59.726319 3.18465,1.159119 0,3.742997 -3.18465,-1.159119 z"/>
<path class="c1" fill="#353564" d="m -189.56075,60.902593 0,3.742997 3.23178,-1.176274 0,-3.742997 z"/>
<path class="c1" fill="#afafde" d="m -189.56075,64.64559 3.18465,1.159118 3.23178,-1.176273 -3.18465,-1.159119 z"/>
<path class="c2" fill="#f7f7f4" d="m -189.56075,60.902593 3.18465,1.159118 3.23178,-1.176273 -3.18465,-1.159119 z"/>
<path class="c2" fill="#ffd242" d="m -186.3761,62.061711 0,3.742997 3.23178,-1.176273 0,-3.742997 z"/>
<path class="c2" fill="#efeeea" d="m -189.56075,60.902593 3.18465,1.159118 0,3.742997 -3.18465,-1.159118 z"/>
</g>
<circle transform="matrix(0.93969262,-0.34202015,0,1,0,0)" cy="1823.899" cx="2835.2185" fill="#ffffff" fill-opacity="1" r="2.966594"/>
<g style="fill:#a29d86;fill-opacity:1;stroke:#cccccc;stroke-width:0.07269443;stroke-linejoin:bevel;stroke-miterlimit:4;stroke-dasharray:none" transform="matrix(4.4913521,0,0,4.4913521,3477.8522,575.56632)">
<path d="m -186.32897,59.726319 3.18465,1.159119 0,3.742997 -3.18465,-1.159119 z" class="c1" fill="#e9e9ff"/>
<path d="m -189.56075,60.902593 0,3.742997 3.23178,-1.176274 0,-3.742997 z" class="c1" fill="#353564"/>
<path d="m -189.56075,64.64559 3.18465,1.159118 3.23178,-1.176273 -3.18465,-1.159119 z" class="c1" fill="#afafde"/>
<path d="m -189.56075,60.902593 3.18465,1.159118 3.23178,-1.176273 -3.18465,-1.159119 z" class="c2" fill="#f7f7f4"/>
<path d="m -186.3761,62.061711 0,3.742997 3.23178,-1.176273 0,-3.742997 z" class="c2" fill="#ffd242"/>
<path d="m -189.56075,60.902593 3.18465,1.159118 0,3.742997 -3.18465,-1.159118 z" class="c2" fill="#efeeea"/>
</g>
<g transform="matrix(4.4913521,0,0,4.4913521,3463.4863,580.79026)" style="fill:#a29d86;fill-opacity:1;stroke:#cccccc;stroke-width:0.07269443;stroke-linejoin:bevel;stroke-miterlimit:4;stroke-dasharray:none">
<path class="c1" fill="#e9e9ff" d="m -186.32897,59.726319 3.18465,1.159119 0,3.742997 -3.18465,-1.159119 z"/>
<path class="c1" fill="#353564" d="m -189.56075,60.902593 0,3.742997 3.23178,-1.176274 0,-3.742997 z"/>
<path class="c1" fill="#afafde" d="m -189.56075,64.64559 3.18465,1.159118 3.23178,-1.176273 -3.18465,-1.159119 z"/>
<path class="c2" fill="#f7f7f4" d="m -189.56075,60.902593 3.18465,1.159118 3.23178,-1.176273 -3.18465,-1.159119 z"/>
<path class="c2" fill="#ffffff" d="m -186.3761,62.061711 0,3.742997 3.23178,-1.176273 0,-3.742997 z"/>
<path class="c2" fill="#efeeea" d="m -189.56075,60.902593 3.18465,1.159118 0,3.742997 -3.18465,-1.159118 z"/>
</g>
<g style="fill:#a29d86;fill-opacity:1;stroke:#cccccc;stroke-width:0.07269443;stroke-linejoin:bevel;stroke-miterlimit:4;stroke-dasharray:none" transform="matrix(4.4913521,0,0,4.4913521,3506.5838,548.14063)">
<path d="m -186.32897,59.726319 3.18465,1.159119 0,3.742997 -3.18465,-1.159119 z" class="c1" fill="#e9e9ff"/>
<path d="m -189.56075,60.902593 0,3.742997 3.23178,-1.176274 0,-3.742997 z" class="c1" fill="#353564"/>
<path d="m -189.56075,64.64559 3.18465,1.159118 3.23178,-1.176273 -3.18465,-1.159119 z" class="c1" fill="#afafde"/>
<path d="m -189.56075,60.902593 3.18465,1.159118 3.23178,-1.176273 -3.18465,-1.159119 z" class="c2" fill="#f7f7f4"/>
<path d="m -186.3761,62.061711 0,3.742997 3.23178,-1.176273 0,-3.742997 z" class="c2" fill="#ffd242"/>
<path d="m -189.56075,60.902593 3.18465,1.159118 0,3.742997 -3.18465,-1.159118 z" class="c2" fill="#efeeea"/>
</g>
<g transform="matrix(4.4913521,0,0,4.4913521,3506.5838,531.16282)" style="fill:#a29d86;fill-opacity:1;stroke:#cccccc;stroke-width:0.07269443;stroke-linejoin:bevel;stroke-miterlimit:4;stroke-dasharray:none">
<path class="c1" fill="#e9e9ff" d="m -186.32897,59.726319 3.18465,1.159119 0,3.742997 -3.18465,-1.159119 z"/>
<path class="c1" fill="#353564" d="m -189.56075,60.902593 0,3.742997 3.23178,-1.176274 0,-3.742997 z"/>
<path class="c1" fill="#afafde" d="m -189.56075,64.64559 3.18465,1.159118 3.23178,-1.176273 -3.18465,-1.159119 z"/>
<path class="c2" fill="#ffc91d" d="m -189.56075,60.902593 3.18465,1.159118 3.23178,-1.176273 -3.18465,-1.159119 z"/>
<path class="c2" fill="#ffd242" d="m -186.3761,62.061711 0,3.742997 3.23178,-1.176273 0,-3.742997 z"/>
<path class="c2" fill="#efeeea" d="m -189.56075,60.902593 3.18465,1.159118 0,3.742997 -3.18465,-1.159118 z"/>
</g>
<g transform="matrix(4.4913521,0,0,4.4913521,3492.218,553.36457)" style="fill:#a29d86;fill-opacity:1;stroke:#cccccc;stroke-width:0.07269443;stroke-linejoin:bevel;stroke-miterlimit:4;stroke-dasharray:none">
<path class="c1" fill="#e9e9ff" d="m -186.32897,59.726319 3.18465,1.159119 0,3.742997 -3.18465,-1.159119 z"/>
<path class="c1" fill="#353564" d="m -189.56075,60.902593 0,3.742997 3.23178,-1.176274 0,-3.742997 z"/>
<path class="c1" fill="#afafde" d="m -189.56075,64.64559 3.18465,1.159118 3.23178,-1.176273 -3.18465,-1.159119 z"/>
<path class="c2" fill="#f7f7f4" d="m -189.56075,60.902593 3.18465,1.159118 3.23178,-1.176273 -3.18465,-1.159119 z"/>
<path class="c2" fill="#ffd242" d="m -186.3761,62.061711 0,3.742997 3.23178,-1.176273 0,-3.742997 z"/>
<path class="c2" fill="#efeeea" d="m -189.56075,60.902593 3.18465,1.159118 0,3.742997 -3.18465,-1.159118 z"/>
</g>
<g style="fill:#a29d86;fill-opacity:1;stroke:#cccccc;stroke-width:0.07269443;stroke-linejoin:bevel;stroke-miterlimit:4;stroke-dasharray:none" transform="matrix(4.4913521,0,0,4.4913521,3492.218,536.38676)">
<path d="m -186.32897,59.726319 3.18465,1.159119 0,3.742997 -3.18465,-1.159119 z" class="c1" fill="#e9e9ff"/>
<path d="m -189.56075,60.902593 0,3.742997 3.23178,-1.176274 0,-3.742997 z" class="c1" fill="#353564"/>
<path d="m -189.56075,64.64559 3.18465,1.159118 3.23178,-1.176273 -3.18465,-1.159119 z" class="c1" fill="#afafde"/>
<path d="m -189.56075,60.902593 3.18465,1.159118 3.23178,-1.176273 -3.18465,-1.159119 z" class="c2" fill="#f7f7f4"/>
<path d="m -186.3761,62.061711 0,3.742997 3.23178,-1.176273 0,-3.742997 z" class="c2" fill="#3775a9"/>
<path d="m -189.56075,60.902593 3.18465,1.159118 0,3.742997 -3.18465,-1.159118 z" class="c2" fill="#efeeea"/>
</g>
<g transform="matrix(4.4913521,0,0,4.4913521,3492.218,519.40896)" style="fill:#a29d86;fill-opacity:1;stroke:#cccccc;stroke-width:0.07269443;stroke-linejoin:bevel;stroke-miterlimit:4;stroke-dasharray:none">
<path class="c1" fill="#e9e9ff" d="m -186.32897,59.726319 3.18465,1.159119 0,3.742997 -3.18465,-1.159119 z"/>
<path class="c1" fill="#353564" d="m -189.56075,60.902593 0,3.742997 3.23178,-1.176274 0,-3.742997 z"/>
<path class="c1" fill="#afafde" d="m -189.56075,64.64559 3.18465,1.159118 3.23178,-1.176273 -3.18465,-1.159119 z"/>
<path class="c2" fill="#2f6491" d="m -189.56075,60.902593 3.18465,1.159118 3.23178,-1.176273 -3.18465,-1.159119 z"/>
<path class="c2" fill="#3775a9" d="m -186.3761,62.061711 0,3.742997 3.23178,-1.176273 0,-3.742997 z"/>
<path class="c2" fill="#efeeea" d="m -189.56075,60.902593 3.18465,1.159118 0,3.742997 -3.18465,-1.159118 z"/>
</g>
<g style="fill:#a29d86;fill-opacity:1;stroke:#cccccc;stroke-width:0.07269443;stroke-linejoin:bevel;stroke-miterlimit:4;stroke-dasharray:none" transform="matrix(4.4913521,0,0,4.4913521,3477.8522,558.58851)">
<path d="m -186.32897,59.726319 3.18465,1.159119 0,3.742997 -3.18465,-1.159119 z" class="c1" fill="#e9e9ff"/>
<path d="m -189.56075,60.902593 0,3.742997 3.23178,-1.176274 0,-3.742997 z" class="c1" fill="#353564"/>
<path d="m -189.56075,64.64559 3.18465,1.159118 3.23178,-1.176273 -3.18465,-1.159119 z" class="c1" fill="#afafde"/>
<path d="m -189.56075,60.902593 3.18465,1.159118 3.23178,-1.176273 -3.18465,-1.159119 z" class="c2" fill="#f7f7f4"/>
<path d="m -186.3761,62.061711 0,3.742997 3.23178,-1.176273 0,-3.742997 z" class="c2" fill="#ffd242"/>
<path d="m -189.56075,60.902593 3.18465,1.159118 0,3.742997 -3.18465,-1.159118 z" class="c2" fill="#efeeea"/>
</g>
<g transform="matrix(4.4913521,0,0,4.4913521,3477.8522,541.6107)" style="fill:#a29d86;fill-opacity:1;stroke:#cccccc;stroke-width:0.07269443;stroke-linejoin:bevel;stroke-miterlimit:4;stroke-dasharray:none">
<path class="c1" fill="#e9e9ff" d="m -186.32897,59.726319 3.18465,1.159119 0,3.742997 -3.18465,-1.159119 z"/>
<path class="c1" fill="#353564" d="m -189.56075,60.902593 0,3.742997 3.23178,-1.176274 0,-3.742997 z"/>
<path class="c1" fill="#afafde" d="m -189.56075,64.64559 3.18465,1.159118 3.23178,-1.176273 -3.18465,-1.159119 z"/>
<path class="c2" fill="#f7f7f4" d="m -189.56075,60.902593 3.18465,1.159118 3.23178,-1.176273 -3.18465,-1.159119 z"/>
<path class="c2" fill="#3775a9" d="m -186.3761,62.061711 0,3.742997 3.23178,-1.176273 0,-3.742997 z"/>
<path class="c2" fill="#efeeea" d="m -189.56075,60.902593 3.18465,1.159118 0,3.742997 -3.18465,-1.159118 z"/>
</g>
<g transform="matrix(4.4913521,0,0,4.4913521,3463.4863,563.81245)" style="fill:#a29d86;fill-opacity:1;stroke:#cccccc;stroke-width:0.07269443;stroke-linejoin:bevel;stroke-miterlimit:4;stroke-dasharray:none">
<path class="c1" fill="#e9e9ff" d="m -186.32897,59.726319 3.18465,1.159119 0,3.742997 -3.18465,-1.159119 z"/>
<path class="c1" fill="#353564" d="m -189.56075,60.902593 0,3.742997 3.23178,-1.176274 0,-3.742997 z"/>
<path class="c1" fill="#afafde" d="m -189.56075,64.64559 3.18465,1.159118 3.23178,-1.176273 -3.18465,-1.159119 z"/>
<path class="c2" fill="#f7f7f4" d="m -189.56075,60.902593 3.18465,1.159118 3.23178,-1.176273 -3.18465,-1.159119 z"/>
<path class="c2" fill="#3775a9" d="m -186.3761,62.061711 0,3.742997 3.23178,-1.176273 0,-3.742997 z"/>
<path class="c2" fill="#2f6491" d="m -189.56075,60.902593 3.18465,1.159118 0,3.742997 -3.18465,-1.159118 z"/>
</g>
<g style="fill:#a29d86;fill-opacity:1;stroke:#cccccc;stroke-width:0.07269443;stroke-linejoin:bevel;stroke-miterlimit:4;stroke-dasharray:none" transform="matrix(4.4913521,0,0,4.4913521,3463.4863,546.83464)">
<path d="m -186.32897,59.726319 3.18465,1.159119 0,3.742997 -3.18465,-1.159119 z" class="c1" fill="#e9e9ff"/>
<path d="m -189.56075,60.902593 0,3.742997 3.23178,-1.176274 0,-3.742997 z" class="c1" fill="#353564"/>
<path d="m -189.56075,64.64559 3.18465,1.159118 3.23178,-1.176273 -3.18465,-1.159119 z" class="c1" fill="#afafde"/>
<path d="m -189.56075,60.902593 3.18465,1.159118 3.23178,-1.176273 -3.18465,-1.159119 z" class="c2" fill="#2f6491"/>
<path d="m -186.3761,62.061711 0,3.742997 3.23178,-1.176273 0,-3.742997 z" class="c2" fill="#3775a9"/>
<path d="m -189.56075,60.902593 3.18465,1.159118 0,3.742997 -3.18465,-1.159118 z" class="c2" fill="#2f6491"/>
</g>
<g transform="matrix(4.4913521,0,0,4.4913521,3477.8522,524.6329)" style="fill:#a29d86;fill-opacity:1;stroke:#cccccc;stroke-width:0.07269443;stroke-linejoin:bevel;stroke-miterlimit:4;stroke-dasharray:none">
<path class="c1" fill="#e9e9ff" d="m -186.32897,59.726319 3.18465,1.159119 0,3.742997 -3.18465,-1.159119 z"/>
<path class="c1" fill="#353564" d="m -189.56075,60.902593 0,3.742997 3.23178,-1.176274 0,-3.742997 z"/>
<path class="c1" fill="#afafde" d="m -189.56075,64.64559 3.18465,1.159118 3.23178,-1.176273 -3.18465,-1.159119 z"/>
<path class="c2" fill="#2f6491" d="m -189.56075,60.902593 3.18465,1.159118 3.23178,-1.176273 -3.18465,-1.159119 z"/>
<path class="c2" fill="#3775a9" d="m -186.3761,62.061711 0,3.742997 3.23178,-1.176273 0,-3.742997 z"/>
<path class="c2" fill="#2f6491" d="m -189.56075,60.902593 3.18465,1.159118 0,3.742997 -3.18465,-1.159118 z"/>
</g>
<circle transform="matrix(0.93969262,-0.34202015,0,1,0,0)" cy="1772.9225" cx="2816.0166" fill="#ffffff" fill-opacity="1" r="2.966594"/>
</g>
</g>
</g>
</g>
</svg>
