<svg xmlns="http://www.w3.org/2000/svg" width="32" height="32" viewBox="0 0 448 448" style="background-color:white"><path style="fill:#00ccbb;" d="M 0,0 V 448 H 448 V 0 Z m 262.2,334.4 c -6.6,3 -33.2,6 -50,-14.2 -9.2,-10.6 -25.3,-33.3 -42.2,-63.6 -8.9,0 -14.7,0 -21.4,-0.6 v 46.4 c 0,23.5 6,21.2 25.8,23.9 v 8.1 c -6.9,-0.3 -23.1,-0.8 -35.6,-0.8 -13.1,0 -26.1,0.6 -33.6,0.8 v -8.1 c 15.5,-2.9 22,-1.3 22,-23.9 V 193 c 0,-22.6 -6.4,-21 -22,-23.9 V 161 c 25.8,1 53.1,-0.6 70.9,-0.6 31.7,0 55.9,14.4 55.9,45.6 0,21.1 -16.7,42.2 -39.2,47.5 13.6,24.2 30,45.6 42.2,58.9 7.2,7.8 17.2,14.7 27.2,14.7 z m 22.9,-135 c -23.3,0 -32.2,-15.7 -32.2,-32.2 V 135 c 0,-12.2 8.8,-30.4 34,-30.4 25.2,0 30.4,17.9 30.4,17.9 l -10.7,7.2 c 0,0 -5.5,-12.5 -19.7,-12.5 -7.9,0 -19.7,7.3 -19.7,19.7 v 26.8 c 0,13.4 6.6,23.3 17.9,23.3 14.1,0 21.5,-10.9 21.5,-26.8 h -17.9 v -10.7 h 30.4 c 0,20.5 4.7,49.9 -34,49.9 z m -116.5,44.7 c -9.4,0 -13.6,-0.3 -20,-0.8 v -69.7 c 6.4,-0.6 15,-0.6 22.5,-0.6 23.3,0 37.2,12.2 37.2,34.5 0,21.9 -15,36.6 -39.7,36.6 z"/></svg>
